<mxfile host="app.diagrams.net" modified="2022-09-11T01:57:19.735Z" agent="5.0 (Windows NT 10.0; Win64; x64) AppleWebKit/537.36 (KHTML, like Gecko) Chrome/105.0.0.0 Safari/537.36 Edg/105.0.1343.27" etag="3qH_moeZERDynBrGNy4q" version="20.2.8" type="github">
  <diagram id="6IW0Xnw6aXFFyTZluMeB" name="Trang-1">
    <mxGraphModel dx="782" dy="460" grid="1" gridSize="10" guides="1" tooltips="1" connect="1" arrows="1" fold="1" page="1" pageScale="1" pageWidth="1654" pageHeight="2336" math="0" shadow="0">
      <root>
        <mxCell id="0" />
        <mxCell id="1" parent="0" />
        <mxCell id="xiGt29_En-sUBO2CQEPe-1" value="Example network" style="text;html=1;strokeColor=none;fillColor=none;align=center;verticalAlign=middle;whiteSpace=wrap;rounded=0;fontSize=20;" vertex="1" parent="1">
          <mxGeometry x="650.5" y="10" width="280" height="30" as="geometry" />
        </mxCell>
        <mxCell id="xiGt29_En-sUBO2CQEPe-2" value="" style="ellipse;shape=cloud;whiteSpace=wrap;html=1;fontSize=20;strokeWidth=3;" vertex="1" parent="1">
          <mxGeometry x="539.5" y="60" width="525" height="200" as="geometry" />
        </mxCell>
        <mxCell id="xiGt29_En-sUBO2CQEPe-3" value="" style="ellipse;shape=cloud;whiteSpace=wrap;html=1;fontSize=20;fillColor=#4D6FB3;strokeWidth=3;" vertex="1" parent="1">
          <mxGeometry x="567" y="190" width="200" height="120" as="geometry" />
        </mxCell>
        <mxCell id="xiGt29_En-sUBO2CQEPe-5" value="" style="ellipse;shape=cloud;whiteSpace=wrap;html=1;fontSize=20;fillColor=#AD7A45;strokeWidth=3;" vertex="1" parent="1">
          <mxGeometry x="867" y="190" width="200" height="120" as="geometry" />
        </mxCell>
        <mxCell id="xiGt29_En-sUBO2CQEPe-6" value="Internet" style="text;html=1;strokeColor=none;fillColor=none;align=center;verticalAlign=middle;whiteSpace=wrap;rounded=0;fontSize=20;" vertex="1" parent="1">
          <mxGeometry x="737" y="150" width="130" height="40" as="geometry" />
        </mxCell>
        <mxCell id="xiGt29_En-sUBO2CQEPe-7" value="ISP1" style="text;html=1;strokeColor=none;fillColor=none;align=center;verticalAlign=middle;whiteSpace=wrap;rounded=0;fontSize=20;" vertex="1" parent="1">
          <mxGeometry x="637" y="240" width="60" height="30" as="geometry" />
        </mxCell>
        <mxCell id="xiGt29_En-sUBO2CQEPe-8" value="ISP2" style="text;html=1;strokeColor=none;fillColor=none;align=center;verticalAlign=middle;whiteSpace=wrap;rounded=0;fontSize=20;" vertex="1" parent="1">
          <mxGeometry x="937" y="240" width="60" height="30" as="geometry" />
        </mxCell>
        <mxCell id="xiGt29_En-sUBO2CQEPe-9" value="" style="shape=mxgraph.cisco.routers.router;sketch=0;html=1;pointerEvents=1;dashed=0;fillColor=#036897;strokeColor=#ffffff;strokeWidth=2;verticalLabelPosition=bottom;verticalAlign=top;align=center;outlineConnect=0;fontSize=20;" vertex="1" parent="1">
          <mxGeometry x="637" y="280" width="60" height="60" as="geometry" />
        </mxCell>
        <mxCell id="xiGt29_En-sUBO2CQEPe-10" value="" style="shape=mxgraph.cisco.routers.router;sketch=0;html=1;pointerEvents=1;dashed=0;fillColor=#036897;strokeColor=#ffffff;strokeWidth=2;verticalLabelPosition=bottom;verticalAlign=top;align=center;outlineConnect=0;fontSize=20;" vertex="1" parent="1">
          <mxGeometry x="947" y="280" width="60" height="60" as="geometry" />
        </mxCell>
        <mxCell id="xiGt29_En-sUBO2CQEPe-11" value="" style="rounded=0;whiteSpace=wrap;html=1;fontSize=20;fillColor=#00B500;strokeColor=#82b366;" vertex="1" parent="1">
          <mxGeometry x="647" y="410" width="350" height="20" as="geometry" />
        </mxCell>
        <mxCell id="xiGt29_En-sUBO2CQEPe-12" value="" style="html=1;outlineConnect=0;fillColor=#dae8fc;strokeColor=#6c8ebf;gradientDirection=north;strokeWidth=2;shape=mxgraph.networks.bus;gradientColor=none;gradientDirection=north;perimeter=backbonePerimeter;backboneSize=20;fontSize=20;" vertex="1" parent="1">
          <mxGeometry x="607" y="450" width="425" height="60" as="geometry" />
        </mxCell>
        <mxCell id="xiGt29_En-sUBO2CQEPe-13" value="" style="endArrow=none;html=1;rounded=0;fontSize=20;" edge="1" parent="1" source="xiGt29_En-sUBO2CQEPe-12">
          <mxGeometry width="50" height="50" relative="1" as="geometry">
            <mxPoint x="767" y="470" as="sourcePoint" />
            <mxPoint x="667" y="340" as="targetPoint" />
          </mxGeometry>
        </mxCell>
        <mxCell id="xiGt29_En-sUBO2CQEPe-14" value="" style="endArrow=none;html=1;rounded=0;fontSize=20;" edge="1" parent="1">
          <mxGeometry width="50" height="50" relative="1" as="geometry">
            <mxPoint x="976.5" y="470" as="sourcePoint" />
            <mxPoint x="976.5" y="340" as="targetPoint" />
          </mxGeometry>
        </mxCell>
        <mxCell id="xiGt29_En-sUBO2CQEPe-15" value="Inet-rtr1" style="text;html=1;strokeColor=none;fillColor=none;align=center;verticalAlign=middle;whiteSpace=wrap;rounded=0;fontSize=15;" vertex="1" parent="1">
          <mxGeometry x="500" y="240" width="100" height="30" as="geometry" />
        </mxCell>
        <mxCell id="xiGt29_En-sUBO2CQEPe-16" value="Inet-rtr1" style="text;html=1;strokeColor=none;fillColor=none;align=center;verticalAlign=middle;whiteSpace=wrap;rounded=0;fontSize=15;" vertex="1" parent="1">
          <mxGeometry x="1040" y="230" width="100" height="30" as="geometry" />
        </mxCell>
        <mxCell id="xiGt29_En-sUBO2CQEPe-17" value="HSRP .12" style="text;html=1;strokeColor=none;fillColor=none;align=center;verticalAlign=middle;whiteSpace=wrap;rounded=0;fontSize=12;" vertex="1" parent="1">
          <mxGeometry x="779.5" y="405" width="80" height="30" as="geometry" />
        </mxCell>
        <mxCell id="xiGt29_En-sUBO2CQEPe-18" value=".10" style="text;html=1;strokeColor=none;fillColor=none;align=center;verticalAlign=middle;whiteSpace=wrap;rounded=0;fontSize=12;" vertex="1" parent="1">
          <mxGeometry x="587" y="405" width="60" height="30" as="geometry" />
        </mxCell>
        <mxCell id="xiGt29_En-sUBO2CQEPe-19" value=".11" style="text;html=1;strokeColor=none;fillColor=none;align=center;verticalAlign=middle;whiteSpace=wrap;rounded=0;fontSize=12;" vertex="1" parent="1">
          <mxGeometry x="993" y="405" width="60" height="30" as="geometry" />
        </mxCell>
        <mxCell id="xiGt29_En-sUBO2CQEPe-20" value="Outside, VLAN 100, 10.0.0.0/28" style="text;html=1;strokeColor=none;fillColor=none;align=center;verticalAlign=middle;whiteSpace=wrap;rounded=0;strokeWidth=3;fontSize=12;" vertex="1" parent="1">
          <mxGeometry x="653" y="465" width="338" height="30" as="geometry" />
        </mxCell>
      </root>
    </mxGraphModel>
  </diagram>
</mxfile>
